<svg height="480pt" viewBox="0 -48 480 480" width="480pt" xmlns="http://www.w3.org/2000/svg"><path d="m88 40h304c8.835938 0 16 7.164062 16 16v152h-336v-152c0-8.835938 7.164062-16 16-16zm0 0" fill="#ffeb99"/><g fill="#898890"><path d="m384 28v12h-40v-12c0-11.046875 8.953125-20 20-20s20 8.953125 20 20zm0 0"/><path d="m144 28v12h-40v-12c0-11.046875 8.953125-20 20-20s20 8.953125 20 20zm0 0"/><path d="m32 344h32v32h-32zm0 0"/><path d="m416 344h32v32h-32zm0 0"/></g><path d="m408 208c22.089844 0 40 17.910156 40 40v16h-416v-16c0-22.089844 17.910156-40 40-40zm0 0" fill="#ebe5dd"/><path d="m472 264v80h-464v-80zm0 0" fill="#ffa733"/><path d="m408 56v32.960938c-18.71875 0-18.71875-13.441407-37.359375-13.441407s-18.71875 13.441407-37.359375 13.441407-18.722656-13.441407-37.359375-13.441407c-18.640625 0-18.640625 13.441407-37.363281 13.441407-18.71875 0-18.636719-13.441407-37.277344-13.441407s-18.640625 13.441407-37.359375 13.441407c-18.722656 0-18.640625-13.441407-37.28125-13.441407s-18.640625 13.441407-37.359375 13.441407c-18.722656 0-18.640625-13.441407-37.28125-13.441407v-19.519531c.027344-8.824219 7.175781-15.972656 16-16h304c8.824219.027344 15.972656 7.175781 16 16zm0 0" fill="#ffa733"/><path d="m136 144h48c13.253906 0 24 10.746094 24 24v16c0 13.253906-10.746094 24-24 24h-48c-13.253906 0-24-10.746094-24-24v-16c0-13.253906 10.746094-24 24-24zm0 0" fill="#ea348b"/><path d="m296 144h48c13.253906 0 24 10.746094 24 24v16c0 13.253906-10.746094 24-24 24h-48c-13.253906 0-24-10.746094-24-24v-16c0-13.253906 10.746094-24 24-24zm0 0" fill="#ea348b"/><path d="m472 256h-16v-8c-.042969-23.398438-16.933594-43.359375-40-47.28125v-144.71875c0-13.253906-10.746094-24-24-24v-4c0-15.464844-12.535156-28-28-28s-28 12.535156-28 28v4h-184v-4c0-15.464844-12.535156-28-28-28s-28 12.535156-28 28v4h-8c-13.253906 0-24 10.746094-24 24v144.71875c-23.066406 3.921875-39.957031 23.882812-40 47.28125v8h-16c-4.417969 0-8 3.582031-8 8v80c0 4.417969 3.582031 8 8 8h16v24c0 4.417969 3.582031 8 8 8h32c4.417969 0 8-3.582031 8-8v-24h336v24c0 4.417969 3.582031 8 8 8h32c4.417969 0 8-3.582031 8-8v-24h16c4.417969 0 8-3.582031 8-8v-80c0-4.417969-3.582031-8-8-8zm-192-72v-16c0-8.835938 7.164062-16 16-16h48c8.835938 0 16 7.164062 16 16v16c0 8.835938-7.164062 16-16 16h-48c-8.835938 0-16-7.164062-16-16zm64-48h-48c-17.671875 0-32 14.328125-32 32v16c.03125 5.632812 1.570312 11.15625 4.449219 16h-56.898438c2.878907-4.84375 4.417969-10.367188 4.449219-16v-16c0-17.671875-14.328125-32-32-32h-48c-17.671875 0-32 14.328125-32 32v16c.03125 5.632812 1.570312 11.15625 4.449219 16h-28.449219v-114.976562c2.117188 1.023437 4.121094 2.269531 5.976562 3.71875 13.621094 10.96875 33.042969 10.96875 46.664063 0 8.03125-6.964844 19.964844-6.964844 28 0 13.625 10.964843 33.046875 10.964843 46.671875 0 8.023438-6.953126 19.9375-6.953126 27.960938 0 13.625 10.964843 33.046874 10.964843 46.671874 0 8.03125-6.960938 19.964844-6.960938 28 0 13.636719 10.96875 33.066407 10.96875 46.703126 0 8.042968-6.933594 19.953124-6.933594 28 0 4.492187 3.613281 9.742187 6.160156 15.359374 7.449218v103.808594h-28.457031c2.878907-4.84375 4.417969-10.367188 4.449219-16v-16c0-17.671875-14.328125-32-32-32zm-224 48v-16c0-8.835938 7.164062-16 16-16h48c8.835938 0 16 7.164062 16 16v16c0 8.835938-7.164062 16-16 16h-48c-8.835938 0-16-7.164062-16-16zm232-156c0-6.628906 5.371094-12 12-12s12 5.371094 12 12v4h-24zm-240 0c0-6.628906 5.371094-12 12-12s12 5.371094 12 12v4h-24zm-24 20h304c4.417969 0 8 3.582031 8 8v23.488281c-2.132812-1.027343-4.152344-2.277343-6.015625-3.734375-13.644531-10.96875-33.078125-10.96875-46.71875 0-8.046875 6.9375-19.957031 6.9375-28 0-13.625-10.980468-33.058594-10.980468-46.679687 0-8.035157 6.960938-19.96875 6.960938-28 0-13.621094-10.976562-33.046876-10.976562-46.664063 0-8.035156 6.960938-19.96875 6.960938-28 0-13.625-10.980468-33.058594-10.980468-46.683594 0-8.03125 6.964844-19.964843 6.964844-28 0-4.453125-3.597656-9.664062-6.140625-15.238281-7.441406v-12.3125c0-4.417969 3.582031-8 8-8zm-48 200c0-17.671875 14.328125-32 32-32h336c17.671875 0 32 14.328125 32 32v8h-400zm16 120h-16v-16h16zm384 0h-16v-16h16zm24-32h-448v-64h448zm0 0"/></svg>