<svg id="Capa_1" enable-background="new 0 0 512 512" height="512" viewBox="0 0 512 512" width="512" xmlns="http://www.w3.org/2000/svg"><g><g><path d="m401.42 78.264 8.026 2.007c33.267 8.317 56.605 38.207 56.605 72.499v256.73c0 4.462-3.617 8.079-8.079 8.079h-56.552z" fill="#eab14d"/></g><g><path d="m427.737 87.519c11.554 13.26 18.405 30.527 18.405 49.093v272.887c0 4.462-3.617 8.079-8.079 8.079h19.909c4.462 0 8.079-3.617 8.079-8.079v-256.73c0-27.577-15.1-52.297-38.314-65.25z" fill="#e7a52e"/></g><g><path d="m110.58 78.264-8.026 2.007c-33.267 8.317-56.605 38.207-56.605 72.499v256.73c0 4.462 3.617 8.079 8.079 8.079h56.552z" fill="#eab14d"/></g><g><path d="m110.58 78.264c-6.899 1.725-13.417 4.271-19.476 7.503v331.81h19.476z" fill="#e7a52e"/></g><g><path d="m131.787 472.11v22.217c0 5.577 4.521 10.099 10.099 10.099h114.114 114.114c5.577 0 10.099-4.521 10.099-10.099v-22.217z" fill="#bed8fb"/></g><g><path d="m358.573 472.11v22.217c0 5.577-4.521 10.099-10.099 10.099h21.64c5.577 0 10.099-4.521 10.099-10.099v-22.217z" fill="#9dc6fb"/></g><g><path d="m401.42 417.578v32.316h27.807 17.709c5.577 0 10.099-4.521 10.099-10.099v-22.217z" fill="#bed8fb"/></g><g><path d="m438.424 417.578v22.217c0 5.577-4.521 10.099-10.099 10.099h.902 17.709c5.577 0 10.099-4.521 10.099-10.099v-22.217z" fill="#9dc6fb"/></g><g><path d="m110.58 417.578v32.316h-27.807-17.709c-5.577 0-10.099-4.521-10.099-10.099v-22.217z" fill="#bed8fb"/></g><g><path d="m91.104 417.578h19.476v32.316h-19.476z" fill="#9dc6fb"/></g><g><path d="m336.789 62.107h-161.578l-64.631 16.157v373.649c0 11.155 9.043 20.197 20.197 20.197h250.446c11.155 0 20.197-9.043 20.197-20.197v-373.649z" fill="#756e78"/></g><g><path d="m376.642 72.07v379.843c0 11.155-9.043 20.197-20.197 20.197h24.778c11.155 0 20.197-9.043 20.197-20.197v-373.649z" fill="#665e66"/></g><g><path d="m191.369 7.574 64.631 101.707 64.631-101.707z" fill="#e49542"/></g><g><path d="m256 109.281 80.789-47.175-16.158-54.532-52.343 50.707c-7.854 7.609-12.288 18.078-12.288 29.013z" fill="#eab14d"/></g><g><path d="m256 109.281-80.789-47.175 16.158-54.533 52.343 50.707c7.854 7.61 12.288 18.079 12.288 29.014z" fill="#eab14d"/></g><g><path d="m312.552 334.769h32.316v80.789h-32.316z" fill="#9dc6fb" transform="matrix(.707 -.707 .707 .707 -169.004 342.316)"/></g><g><path d="m167.132 334.769h32.316v80.789h-32.316z" fill="#9dc6fb" transform="matrix(-.707 -.707 .707 -.707 47.615 770.05)"/></g><g><circle cx="324.671" cy="192.523" fill="#eab14d" r="28.276"/></g><g><circle cx="221.989" cy="164.247" r="10.099"/><circle cx="221.989" cy="230.898" r="10.099"/><circle cx="221.989" cy="297.549" r="10.099"/><path d="m466.051 211.638c4.183 0 7.574-3.391 7.574-7.574v-51.295c0-37.836-25.636-70.67-62.342-79.846l-68.462-17.116-14.928-50.385c-.752-2.539-2.777-4.502-5.34-5.175-.636-.166-1.281-.247-1.922-.247h-.002c-.01 0-.019 0-.029 0h-129.213c-.003 0-.005 0-.008 0h-.011v.001c-.641 0-1.287.08-1.922.247-2.563.673-4.587 2.635-5.34 5.175l-14.929 50.385-68.461 17.116c-36.706 9.177-62.342 42.011-62.342 79.846v256.73c0 6.257 3.699 11.652 9.017 14.156v16.14c0 9.745 7.928 17.673 17.673 17.673h38.501c2.145 10.526 10.265 18.899 20.648 21.426v15.434c0 9.745 7.928 17.673 17.673 17.673h182.794c4.183 0 7.574-3.391 7.574-7.574s-3.391-7.574-7.574-7.574h-182.794c-1.392 0-2.525-1.132-2.525-2.525v-14.643h233.278v14.643c0 1.392-1.133 2.525-2.525 2.525h-9.999c-4.183 0-7.574 3.391-7.574 7.574s3.391 7.574 7.574 7.574h9.999c9.745 0 17.673-7.928 17.673-17.673v-15.434c10.383-2.527 18.503-10.901 20.648-21.426h38.501c9.745 0 17.673-7.928 17.673-17.673v-16.14c5.318-2.504 9.017-7.899 9.017-14.156v-170.043c0-4.183-3.391-7.574-7.574-7.574s-7.574 3.391-7.574 7.574v170.042c0 .278-.226.505-.505.505h-48.978v-322.007c29.205 7.958 49.483 34.381 49.483 64.772v51.295c-.001 4.184 3.39 7.574 7.573 7.574zm-138.212-153.076-64.265 37.526v-8.794c0-8.833 3.639-17.426 9.984-23.573l43.363-42.008zm-78.857-5.721-38.91-37.693h91.855l-38.91 37.693c-2.686 2.602-5.028 5.512-7.018 8.636-1.988-3.124-4.331-6.033-7.017-8.636zm-53.903-31.128 43.363 42.008c6.345 6.147 9.984 14.74 9.984 23.573v8.794l-64.265-37.526zm-132.54 418.082v-14.643h40.466v17.168h-37.941c-1.392 0-2.525-1.133-2.525-2.525zm55.615 12.118v-106.865c0-4.183-3.391-7.574-7.574-7.574s-7.574 3.391-7.574 7.574v64.956h-48.978c-.279 0-.505-.227-.505-.505v-256.73c0-30.391 20.278-56.814 49.483-64.772v221.67c0 4.183 3.391 7.574 7.574 7.574s7.574-3.391 7.574-7.574v-225.489l55.902-13.975 74.37 43.426v350.908h-117.649c-6.96-.001-12.623-5.663-12.623-12.624zm275.692 0c0 6.961-5.663 12.623-12.623 12.623h-117.649v-350.907l74.37-43.426 55.902 13.975zm55.615-26.761v14.643c0 1.393-1.133 2.525-2.525 2.525h-37.942v-17.168z"/><path d="m316.928 329.82c-2.957-2.957-7.753-2.957-10.711 0l-22.851 22.85c-1.421 1.421-2.218 3.347-2.218 5.356s.798 3.935 2.218 5.356l57.127 57.126c1.479 1.478 3.417 2.218 5.356 2.218 1.938 0 3.877-.74 5.356-2.218l22.851-22.85c1.421-1.421 2.218-3.347 2.218-5.356s-.798-3.935-2.218-5.356zm28.92 74.621-46.415-46.415 12.139-12.139 46.415 46.415z"/><path d="m160.796 420.508c1.479 1.478 3.417 2.218 5.356 2.218 1.938 0 3.877-.74 5.356-2.218l57.127-57.126c1.421-1.421 2.218-3.347 2.218-5.356s-.798-3.935-2.218-5.356l-22.851-22.85c-2.958-2.957-7.753-2.957-10.711 0l-57.127 57.126c-1.421 1.421-2.218 3.347-2.218 5.356s.798 3.935 2.218 5.356zm39.632-74.621 12.139 12.139-46.415 46.415-12.139-12.139z"/><path d="m324.671 228.373c19.768 0 35.85-16.082 35.85-35.85s-16.082-35.85-35.85-35.85-35.85 16.082-35.85 35.85 16.082 35.85 35.85 35.85zm0-56.552c11.415 0 20.702 9.287 20.702 20.702s-9.287 20.702-20.702 20.702-20.702-9.287-20.702-20.702c-.001-11.415 9.286-20.702 20.702-20.702z"/></g></g></svg>