<svg height="512" viewBox="0 0 512 512" width="512" xmlns="http://www.w3.org/2000/svg"><g id="filled_outline" data-name="filled outline"><path d="m102.961 173.848 78.993 94.175a16 16 0 0 0 22.253 2.211 320.272 320.272 0 0 0 50.027-50.027l9.766-12.207-72-48z" fill="#8726e2"/><path d="m88 24v108.72a64 64 0 0 0 67.2 63.92l92.8-4.64z" fill="#ff2b63"/><path d="m232.558 182.631-85.358 4.269a63.759 63.759 0 0 1 -48.425-18.664q.886 1.327 1.836 2.6l5.055 6.027a63.813 63.813 0 0 0 49.534 19.777l91.512-4.576z" fill="#e5235f"/><path d="m282.152 46.961-94.175 78.993a16 16 0 0 0 -2.211 22.253 320.272 320.272 0 0 0 50.027 50.027l12.207 9.766 48-72z" fill="#8726e2"/><path d="m432 32h-108.72a64 64 0 0 0 -63.92 67.2l4.64 92.8z" fill="#ff2b63"/><path d="m263.85 189 1.941 1.294 68.985-65.7-5.768-6.877a16 16 0 0 0 -22.254-2.211 320.288 320.288 0 0 0 -44.418 43.211z" fill="#e5235f"/><path d="m409.039 226.152-78.993-94.175a16 16 0 0 0 -22.253-2.211 320.272 320.272 0 0 0 -50.027 50.027l-9.766 12.207 72 48z" fill="#8726e2"/><path d="m424 376v-108.72a64 64 0 0 0 -67.2-63.92l-92.8 4.64z" fill="#ff2b63"/><path d="m356.8 203.36-92.8 4.64 11.565 12.144 81.239-4.062a64 64 0 0 1 67.196 63.918v-12.72a64 64 0 0 0 -67.2-63.92z" fill="#e5235f"/><path d="m240 272h32v216h-32z" fill="#fdc47d"/><path d="m263.999 271.999h8v216h-8z" fill="#ffb769"/><path d="m229.848 353.039 94.175-78.993a16 16 0 0 0 2.211-22.253 320.272 320.272 0 0 0 -50.027-50.027l-12.207-9.766-48 72z" fill="#8726e2"/><path d="m80 368h108.72a64 64 0 0 0 63.92-67.2l-4.64-92.8z" fill="#ff2b63"/><path d="m252.64 300.8-4.64-92.8-12.144 11.565 4.062 81.239a64 64 0 0 1 -63.918 67.196h12.72a64 64 0 0 0 63.92-67.2z" fill="#e5235f"/><path d="m142.112 220.524 39.842 47.5a16 16 0 0 0 22.253 2.211 320.272 320.272 0 0 0 50.027-50.027l9.766-12.208z" fill="#8726e2"/><circle cx="256" cy="200" fill="#ffcd01" r="40"/><path d="m223.96 223.95a40 40 0 0 0 66.114-44.9 74.006 74.006 0 0 1 -66.114 44.9z" fill="#ffba01"/><circle cx="96" cy="298" r="8"/><circle cx="368" cy="418" r="8"/><circle cx="256" cy="200" r="8"/><path d="m85.029 16.572a8 8 0 0 0 -5.029 7.428v108.72a71.24 71.24 0 0 0 16.759 46.174c.026.031.047.065.073.1l.223.266c.1.118.2.237.3.354l74.988 89.4-97.858 93.2a8 8 0 0 0 5.515 13.786h108.72a71.247 71.247 0 0 0 43.28-14.451v126.451a8 8 0 0 0 8 8h32a8 8 0 0 0 8-8v-166.586l45.01-37.754 93.2 97.858a8 8 0 0 0 13.79-5.518v-108.72a71.24 71.24 0 0 0 -16.759-46.174c-.026-.031-.047-.065-.073-.1l-.223-.266c-.1-.118-.2-.237-.3-.354l-74.988-89.4 97.858-93.2a8 8 0 0 0 -5.515-13.786h-108.72a71.24 71.24 0 0 0 -46.174 16.759c-.031.026-.065.047-.1.073l-.266.223c-.118.1-.237.2-.354.3l-89.4 74.988-93.2-97.858a8 8 0 0 0 -8.757-1.913zm106.984 126.637a8.047 8.047 0 0 1 1.106-11.127l59.472-49.882a72.719 72.719 0 0 0 -1.222 17.4l2.623 52.455a47.965 47.965 0 0 0 -36.486 19.307 313.5 313.5 0 0 1 -25.493-28.153zm131.905-6.09 49.889 59.481a72.912 72.912 0 0 0 -17.4-1.228l-52.455 2.623a47.965 47.965 0 0 0 -19.306-36.485 313.225 313.225 0 0 1 28.147-25.494 8.049 8.049 0 0 1 11.125 1.103zm-3.931 119.672a8.047 8.047 0 0 1 -1.106 11.127l-59.472 49.882a72.719 72.719 0 0 0 1.222-17.4l-2.623-52.455a47.965 47.965 0 0 0 36.486-19.307 313.338 313.338 0 0 1 25.493 28.153zm-63.987-88.791a32 32 0 1 1 -32 32 32.036 32.036 0 0 1 32-32zm-47.949 34.007a47.969 47.969 0 0 0 19.306 36.487 313.406 313.406 0 0 1 -28.148 25.493 8.046 8.046 0 0 1 -11.127-1.106l-49.868-59.452a72.406 72.406 0 0 0 13.671 1.295q1.847 0 3.711-.093zm-108.051 157.993 84.413-80.392a24.407 24.407 0 0 0 9.853 2.079 23.842 23.842 0 0 0 14.938-5.206 329.544 329.544 0 0 0 32.709-30.015l2.737 54.734a55.5 55.5 0 0 1 -15.356 41.4q-1.977 2.078-4.121 3.922l-.208.175a55.411 55.411 0 0 1 -36.245 13.303zm164 120h-16v-131.745l16-13.42zm152-124-80.408-84.429a24.127 24.127 0 0 0 -3.111-24.776 329.7 329.7 0 0 0 -30.014-32.708l54.733-2.737a55.456 55.456 0 0 1 41.4 15.356q2.078 1.977 3.922 4.121l.175.208a55.411 55.411 0 0 1 13.303 36.245zm-4-316-84.429 80.408a24.124 24.124 0 0 0 -24.775 3.111 329.291 329.291 0 0 0 -32.709 30.016l-2.737-54.735a55.5 55.5 0 0 1 15.356-41.4q1.977-2.077 4.121-3.922l.208-.175a55.411 55.411 0 0 1 36.245-13.303zm-316 4 80.408 84.429a24.127 24.127 0 0 0 3.111 24.776 329.593 329.593 0 0 0 30.014 32.708l-54.733 2.737a55.485 55.485 0 0 1 -41.4-15.356q-2.078-1.977-3.922-4.121l-.175-.208a55.411 55.411 0 0 1 -13.303-36.245z"/><path d="m16 298a8 8 0 0 0 8 8h40a8 8 0 0 0 0-16h-40a8 8 0 0 0 -8 8z"/><path d="m400 410a8 8 0 0 0 0 16h56a8 8 0 0 0 0-16z"/><path d="m472 136a8 8 0 0 0 -8-8h-64a8 8 0 0 0 0 16h64a8 8 0 0 0 8-8z"/><path d="m32 250a8 8 0 0 0 8 8h56a8 8 0 0 0 0-16h-56a8 8 0 0 0 -8 8z"/><path d="m488 88a8 8 0 0 0 -8-8h-40a8 8 0 0 0 0 16h40a8 8 0 0 0 8-8z"/></g></svg>